<svg xmlns="http://www.w3.org/2000/svg" viewBox="0 0 512 512" role="img" aria-label="주간 계획표 앱 아이콘">
  <rect width="512" height="512" rx="96" fill="#0f766e"/>
  <rect x="76" y="116" width="360" height="320" rx="28" fill="#ffffff"/>

  <!-- 상단 색띠 -->
  <path d="M104 116 h304 a28 28 0 0 1 28 28 v60 h-360 v-60 a28 28 0 0 1 28 -28 z" fill="#f7efe4"/>

  <!-- 요일 점: 일(빨강)·평일(검정)·토(파랑) -->
  <circle cx="146" cy="172" r="11" fill="#dc2626"/>
  <circle cx="201" cy="172" r="11" fill="#20242a"/>
  <circle cx="256" cy="172" r="11" fill="#20242a"/>
  <circle cx="311" cy="172" r="11" fill="#20242a"/>
  <circle cx="366" cy="172" r="11" fill="#2563eb"/>

  <!-- 셀 그리드 -->
  <g stroke="#d9dde5" stroke-width="3">
    <line x1="76" y1="244" x2="436" y2="244"/>
    <line x1="76" y1="304" x2="436" y2="304"/>
    <line x1="76" y1="364" x2="436" y2="364"/>
    <line x1="148" y1="204" x2="148" y2="436"/>
    <line x1="220" y1="204" x2="220" y2="436"/>
    <line x1="292" y1="204" x2="292" y2="436"/>
    <line x1="364" y1="204" x2="364" y2="436"/>
  </g>

  <!-- 일정이 들어간 셀 (색깔로 강조) -->
  <rect x="149" y="245" width="71" height="58" fill="#fff7cc"/>
  <rect x="221" y="305" width="71" height="58" fill="#dcfce7"/>
  <rect x="293" y="245" width="71" height="58" fill="#dbeafe"/>
  <rect x="365" y="365" width="71" height="58" fill="#fae8ff"/>
</svg>
